<?xml version="1.0" encoding="utf-8"?>
<!-- Generator: Adobe Illustrator 16.0.0, SVG Export Plug-In . SVG Version: 6.00 Build 0)  -->
<!DOCTYPE svg PUBLIC "-//W3C//DTD SVG 1.1//EN" "http://www.w3.org/Graphics/SVG/1.1/DTD/svg11.dtd">
<svg version="1.1" id="Layer_1" xmlns="http://www.w3.org/2000/svg" xmlns:xlink="http://www.w3.org/1999/xlink" x="0px" y="0px"
	 width="1280px" height="800px" viewBox="0 0 1280 800" enable-background="new 0 0 1280 800" xml:space="preserve">
<rect x="-0.5" y="0.5" fill="#EAC926" stroke="#000000" stroke-miterlimit="10" width="1280" height="800"/>
<rect x="-0.5" y="399.5" stroke="#000000" stroke-miterlimit="10" width="1280" height="400"/>
<rect x="-0.5" y="360.5" stroke="#000000" stroke-miterlimit="10" width="40" height="40"/>
<rect x="39.5" y="319.5" stroke="#000000" stroke-miterlimit="10" width="40" height="40"/>
<rect x="116.5" y="319.5" stroke="#000000" stroke-miterlimit="10" width="40" height="40"/>
<rect x="196.5" y="319.5" stroke="#000000" stroke-miterlimit="10" width="40" height="40"/>
<rect x="276.5" y="319.5" stroke="#000000" stroke-miterlimit="10" width="40" height="40"/>
<rect x="356.5" y="319.5" stroke="#000000" stroke-miterlimit="10" width="40" height="40"/>
<rect x="436.5" y="320.5" stroke="#000000" stroke-miterlimit="10" width="40" height="40"/>
<rect x="516.5" y="320.5" stroke="#000000" stroke-miterlimit="10" width="40" height="40"/>
<rect x="596.5" y="320.5" stroke="#000000" stroke-miterlimit="10" width="40" height="40"/>
<rect x="676.5" y="320.5" stroke="#000000" stroke-miterlimit="10" width="40" height="40"/>
<rect x="756.5" y="320.5" stroke="#000000" stroke-miterlimit="10" width="40" height="40"/>
<rect x="836.5" y="319.5" stroke="#000000" stroke-miterlimit="10" width="40" height="40"/>
<rect x="916.5" y="319.5" stroke="#000000" stroke-miterlimit="10" width="40" height="40"/>
<rect x="996.5" y="320.5" stroke="#000000" stroke-miterlimit="10" width="40" height="40"/>
<rect x="1076.5" y="319.5" stroke="#000000" stroke-miterlimit="10" width="40" height="40"/>
<rect x="1156.5" y="320.5" stroke="#000000" stroke-miterlimit="10" width="40" height="40"/>
<rect x="1236.5" y="319.5" stroke="#000000" stroke-miterlimit="10" width="43" height="40"/>
<rect x="39.5" y="360.5" fill="#EAC926" stroke="#000000" stroke-miterlimit="10" width="40" height="40"/>
<rect x="116.5" y="360.5" fill="#EAC926" stroke="#000000" stroke-miterlimit="10" width="40" height="40"/>
<rect x="196.5" y="360.5" fill="#EAC926" stroke="#000000" stroke-miterlimit="10" width="40" height="40"/>
<rect x="276.5" y="360.5" fill="#EAC926" stroke="#000000" stroke-miterlimit="10" width="40" height="40"/>
<rect x="356.5" y="360.5" fill="#EAC926" stroke="#000000" stroke-miterlimit="10" width="40" height="40"/>
<rect x="436.5" y="359.5" fill="#EAC926" stroke="#000000" stroke-miterlimit="10" width="40" height="40"/>
<rect x="516.5" y="360.5" fill="#EAC926" stroke="#000000" stroke-miterlimit="10" width="40" height="40"/>
<rect x="596.5" y="360.5" fill="#EAC926" stroke="#000000" stroke-miterlimit="10" width="40" height="40"/>
<rect x="676.5" y="359.5" fill="#EAC926" stroke="#000000" stroke-miterlimit="10" width="40" height="40"/>
<rect x="756.5" y="359.5" fill="#EAC926" stroke="#000000" stroke-miterlimit="10" width="40" height="40"/>
<rect x="836.5" y="360.5" fill="#EAC926" stroke="#000000" stroke-miterlimit="10" width="40" height="40"/>
<rect x="916.5" y="359.5" fill="#EAC926" stroke="#000000" stroke-miterlimit="10" width="40" height="40"/>
<rect x="996.5" y="360.5" fill="#EAC926" stroke="#000000" stroke-miterlimit="10" width="40" height="40"/>
<rect x="1076.5" y="360.5" fill="#EAC926" stroke="#000000" stroke-miterlimit="10" width="40" height="40"/>
<rect x="1236.5" y="359.5" fill="#EAC926" stroke="#000000" stroke-miterlimit="10" width="43" height="40"/>
<rect x="1156.5" y="359.5" fill="#EAC926" stroke="#000000" stroke-miterlimit="10" width="40" height="40"/>
<rect x="76.5" y="360.5" stroke="#000000" stroke-miterlimit="10" width="40" height="40"/>
<rect x="156.5" y="360.5" stroke="#000000" stroke-miterlimit="10" width="40" height="40"/>
<rect x="236.5" y="360.5" stroke="#000000" stroke-miterlimit="10" width="40" height="40"/>
<rect x="316.5" y="360.5" stroke="#000000" stroke-miterlimit="10" width="40" height="40"/>
<rect x="396.5" y="359.5" stroke="#000000" stroke-miterlimit="10" width="40" height="40"/>
<rect x="476.5" y="359.5" stroke="#000000" stroke-miterlimit="10" width="40" height="40"/>
<rect x="556.5" y="359.5" stroke="#000000" stroke-miterlimit="10" width="40" height="40"/>
<rect x="636.5" y="360.5" stroke="#000000" stroke-miterlimit="10" width="40" height="40"/>
<rect x="716.5" y="359.5" stroke="#000000" stroke-miterlimit="10" width="40" height="40"/>
<rect x="796.5" y="360.5" stroke="#000000" stroke-miterlimit="10" width="40" height="40"/>
<rect x="876.5" y="360.5" stroke="#000000" stroke-miterlimit="10" width="40" height="40"/>
<rect x="956.5" y="360.5" stroke="#000000" stroke-miterlimit="10" width="40" height="40"/>
<rect x="1036.5" y="360.5" stroke="#000000" stroke-miterlimit="10" width="40" height="40"/>
<rect x="1116.5" y="360.5" stroke="#000000" stroke-miterlimit="10" width="40" height="40"/>
<rect x="1196.5" y="360.5" stroke="#000000" stroke-miterlimit="10" width="40" height="40"/>
</svg>
