<?xml version="1.0" encoding="utf-8"?>
<!-- Generator: Adobe Illustrator 16.0.0, SVG Export Plug-In . SVG Version: 6.00 Build 0)  -->
<!DOCTYPE svg PUBLIC "-//W3C//DTD SVG 1.1//EN" "http://www.w3.org/Graphics/SVG/1.1/DTD/svg11.dtd">
<svg version="1.1" id="Layer_1" xmlns="http://www.w3.org/2000/svg" xmlns:xlink="http://www.w3.org/1999/xlink" x="0px" y="0px"
	 width="1280px" height="800px" viewBox="0 0 1280 800" enable-background="new 0 0 1280 800" xml:space="preserve">
<rect x="-0.5" y="0.5" fill="#EAC926" stroke="#000000" stroke-miterlimit="10" width="1280" height="800"/>
<rect x="-0.5" y="301.5" stroke="#000000" stroke-miterlimit="10" width="1280" height="504"/>
<g>
	<g>
		<rect x="603.5" y="283.5" stroke="#000000" stroke-miterlimit="10" width="21" height="18"/>
		<rect x="624.5" y="264.5" stroke="#000000" stroke-miterlimit="10" width="21" height="18"/>
		<rect x="665.5" y="264.5" stroke="#000000" stroke-miterlimit="10" width="21" height="18"/>
		<rect x="707.5" y="264.5" stroke="#000000" stroke-miterlimit="10" width="21" height="18"/>
		<rect x="749.5" y="264.5" stroke="#000000" stroke-miterlimit="10" width="21" height="18"/>
		<rect x="791.5" y="264.5" stroke="#000000" stroke-miterlimit="10" width="21" height="18"/>
		<rect x="833.5" y="264.5" stroke="#000000" stroke-miterlimit="10" width="21" height="19"/>
		<rect x="876.5" y="264.5" stroke="#000000" stroke-miterlimit="10" width="21" height="19"/>
		<rect x="918.5" y="264.5" stroke="#000000" stroke-miterlimit="10" width="21" height="19"/>
		<rect x="960.5" y="264.5" stroke="#000000" stroke-miterlimit="10" width="21" height="19"/>
		<rect x="1002.5" y="264.5" stroke="#000000" stroke-miterlimit="10" width="21" height="19"/>
		<rect x="1044.5" y="264.5" stroke="#000000" stroke-miterlimit="10" width="21" height="18"/>
		<rect x="1087.5" y="264.5" stroke="#000000" stroke-miterlimit="10" width="21" height="18"/>
		<rect x="1129.5" y="264.5" stroke="#000000" stroke-miterlimit="10" width="21" height="19"/>
		<rect x="1171.5" y="264.5" stroke="#000000" stroke-miterlimit="10" width="21" height="18"/>
		<rect x="1213.5" y="264.5" stroke="#000000" stroke-miterlimit="10" width="21" height="19"/>
		<rect x="1255.5" y="264.5" stroke="#000000" stroke-miterlimit="10" width="23" height="18"/>
		<rect x="624.5" y="283.5" fill="#EAC926" stroke="#000000" stroke-miterlimit="10" width="21" height="18"/>
		<rect x="665.5" y="283.5" fill="#EAC926" stroke="#000000" stroke-miterlimit="10" width="21" height="18"/>
		<rect x="707.5" y="283.5" fill="#EAC926" stroke="#000000" stroke-miterlimit="10" width="21" height="18"/>
		<rect x="749.5" y="283.5" fill="#EAC926" stroke="#000000" stroke-miterlimit="10" width="21" height="18"/>
		<rect x="791.5" y="283.5" fill="#EAC926" stroke="#000000" stroke-miterlimit="10" width="21" height="18"/>
		<rect x="833.5" y="282.5" fill="#EAC926" stroke="#000000" stroke-miterlimit="10" width="21" height="19"/>
		<rect x="876.5" y="283.5" fill="#EAC926" stroke="#000000" stroke-miterlimit="10" width="21" height="18"/>
		<rect x="918.5" y="283.5" fill="#EAC926" stroke="#000000" stroke-miterlimit="10" width="21" height="18"/>
		<rect x="960.5" y="282.5" fill="#EAC926" stroke="#000000" stroke-miterlimit="10" width="21" height="19"/>
		<rect x="1002.5" y="282.5" fill="#EAC926" stroke="#000000" stroke-miterlimit="10" width="21" height="19"/>
		<rect x="1044.5" y="283.5" fill="#EAC926" stroke="#000000" stroke-miterlimit="10" width="21" height="18"/>
		<rect x="1087.5" y="282.5" fill="#EAC926" stroke="#000000" stroke-miterlimit="10" width="21" height="19"/>
		<rect x="1129.5" y="283.5" fill="#EAC926" stroke="#000000" stroke-miterlimit="10" width="21" height="18"/>
		<rect x="1171.5" y="283.5" fill="#EAC926" stroke="#000000" stroke-miterlimit="10" width="21" height="18"/>
		<rect x="1255.5" y="282.5" fill="#EAC926" stroke="#000000" stroke-miterlimit="10" width="23" height="19"/>
		<rect x="1213.5" y="282.5" fill="#EAC926" stroke="#000000" stroke-miterlimit="10" width="21" height="19"/>
		<rect x="643.5" y="283.5" stroke="#000000" stroke-miterlimit="10" width="22" height="18"/>
		<rect x="686.5" y="283.5" stroke="#000000" stroke-miterlimit="10" width="21" height="18"/>
		<rect x="728.5" y="283.5" stroke="#000000" stroke-miterlimit="10" width="21" height="18"/>
		<rect x="770.5" y="283.5" stroke="#000000" stroke-miterlimit="10" width="21" height="18"/>
		<rect x="812.5" y="282.5" stroke="#000000" stroke-miterlimit="10" width="21" height="19"/>
		<rect x="854.5" y="282.5" stroke="#000000" stroke-miterlimit="10" width="22" height="19"/>
		<rect x="897.5" y="282.5" stroke="#000000" stroke-miterlimit="10" width="21" height="19"/>
		<rect x="939.5" y="283.5" stroke="#000000" stroke-miterlimit="10" width="21" height="18"/>
		<rect x="981.5" y="282.5" stroke="#000000" stroke-miterlimit="10" width="21" height="19"/>
		<rect x="1023.5" y="283.5" stroke="#000000" stroke-miterlimit="10" width="21" height="18"/>
		<rect x="1065.5" y="283.5" stroke="#000000" stroke-miterlimit="10" width="22" height="18"/>
		<rect x="1108.5" y="283.5" stroke="#000000" stroke-miterlimit="10" width="21" height="18"/>
		<rect x="1150.5" y="283.5" stroke="#000000" stroke-miterlimit="10" width="21" height="18"/>
		<rect x="1192.5" y="283.5" stroke="#000000" stroke-miterlimit="10" width="21" height="18"/>
		<rect x="1234.5" y="283.5" stroke="#000000" stroke-miterlimit="10" width="21" height="18"/>
	</g>
	<g>
		<rect x="0.5" y="284.5" stroke="#000000" stroke-miterlimit="10" width="18" height="18"/>
		<rect x="18.5" y="265.5" stroke="#000000" stroke-miterlimit="10" width="20" height="18"/>
		<rect x="55.5" y="265.5" stroke="#000000" stroke-miterlimit="10" width="19" height="18"/>
		<rect x="93.5" y="265.5" stroke="#000000" stroke-miterlimit="10" width="19" height="18"/>
		<rect x="130.5" y="265.5" stroke="#000000" stroke-miterlimit="10" width="19" height="18"/>
		<rect x="168.5" y="265.5" stroke="#000000" stroke-miterlimit="10" width="18" height="18"/>
		<rect x="206.5" y="265.5" stroke="#000000" stroke-miterlimit="10" width="18" height="19"/>
		<rect x="244.5" y="265.5" stroke="#000000" stroke-miterlimit="10" width="19" height="19"/>
		<rect x="282.5" y="265.5" stroke="#000000" stroke-miterlimit="10" width="18" height="19"/>
		<rect x="319.5" y="265.5" stroke="#000000" stroke-miterlimit="10" width="19" height="19"/>
		<rect x="356.5" y="265.5" stroke="#000000" stroke-miterlimit="10" width="19" height="19"/>
		<rect x="394.5" y="265.5" stroke="#000000" stroke-miterlimit="10" width="19" height="18"/>
		<rect x="432.5" y="265.5" stroke="#000000" stroke-miterlimit="10" width="19" height="18"/>
		<rect x="470.5" y="265.5" stroke="#000000" stroke-miterlimit="10" width="18" height="19"/>
		<rect x="508.5" y="265.5" stroke="#000000" stroke-miterlimit="10" width="18" height="18"/>
		<rect x="545.5" y="265.5" stroke="#000000" stroke-miterlimit="10" width="19" height="19"/>
		<rect x="583.5" y="265.5" stroke="#000000" stroke-miterlimit="10" width="20" height="18"/>
		<rect x="18.5" y="284.5" fill="#EAC926" stroke="#000000" stroke-miterlimit="10" width="20" height="18"/>
		<rect x="55.5" y="284.5" fill="#EAC926" stroke="#000000" stroke-miterlimit="10" width="19" height="18"/>
		<rect x="93.5" y="284.5" fill="#EAC926" stroke="#000000" stroke-miterlimit="10" width="19" height="18"/>
		<rect x="130.5" y="284.5" fill="#EAC926" stroke="#000000" stroke-miterlimit="10" width="19" height="18"/>
		<rect x="168.5" y="284.5" fill="#EAC926" stroke="#000000" stroke-miterlimit="10" width="18" height="18"/>
		<rect x="206.5" y="283.5" fill="#EAC926" stroke="#000000" stroke-miterlimit="10" width="18" height="19"/>
		<rect x="244.5" y="284.5" fill="#EAC926" stroke="#000000" stroke-miterlimit="10" width="19" height="18"/>
		<rect x="282.5" y="284.5" fill="#EAC926" stroke="#000000" stroke-miterlimit="10" width="18" height="18"/>
		<rect x="319.5" y="283.5" fill="#EAC926" stroke="#000000" stroke-miterlimit="10" width="19" height="19"/>
		<rect x="356.5" y="283.5" fill="#EAC926" stroke="#000000" stroke-miterlimit="10" width="19" height="19"/>
		<rect x="394.5" y="284.5" fill="#EAC926" stroke="#000000" stroke-miterlimit="10" width="19" height="18"/>
		<rect x="432.5" y="283.5" fill="#EAC926" stroke="#000000" stroke-miterlimit="10" width="19" height="19"/>
		<rect x="470.5" y="284.5" fill="#EAC926" stroke="#000000" stroke-miterlimit="10" width="18" height="18"/>
		<rect x="508.5" y="284.5" fill="#EAC926" stroke="#000000" stroke-miterlimit="10" width="18" height="18"/>
		<rect x="583.5" y="283.5" fill="#EAC926" stroke="#000000" stroke-miterlimit="10" width="20" height="19"/>
		<rect x="545.5" y="283.5" fill="#EAC926" stroke="#000000" stroke-miterlimit="10" width="19" height="19"/>
		<rect x="36.5" y="284.5" stroke="#000000" stroke-miterlimit="10" width="19" height="18"/>
		<rect x="74.5" y="284.5" stroke="#000000" stroke-miterlimit="10" width="19" height="18"/>
		<rect x="112.5" y="284.5" stroke="#000000" stroke-miterlimit="10" width="18" height="18"/>
		<rect x="149.5" y="284.5" stroke="#000000" stroke-miterlimit="10" width="19" height="18"/>
		<rect x="186.5" y="283.5" stroke="#000000" stroke-miterlimit="10" width="20" height="19"/>
		<rect x="224.5" y="283.5" stroke="#000000" stroke-miterlimit="10" width="20" height="19"/>
		<rect x="263.5" y="283.5" stroke="#000000" stroke-miterlimit="10" width="19" height="19"/>
		<rect x="300.5" y="284.5" stroke="#000000" stroke-miterlimit="10" width="19" height="18"/>
		<rect x="338.5" y="283.5" stroke="#000000" stroke-miterlimit="10" width="18" height="19"/>
		<rect x="375.5" y="284.5" stroke="#000000" stroke-miterlimit="10" width="19" height="18"/>
		<rect x="413.5" y="284.5" stroke="#000000" stroke-miterlimit="10" width="19" height="18"/>
		<rect x="451.5" y="284.5" stroke="#000000" stroke-miterlimit="10" width="19" height="18"/>
		<rect x="488.5" y="284.5" stroke="#000000" stroke-miterlimit="10" width="20" height="18"/>
		<rect x="526.5" y="284.5" stroke="#000000" stroke-miterlimit="10" width="19" height="18"/>
		<rect x="564.5" y="284.5" stroke="#000000" stroke-miterlimit="10" width="19" height="18"/>
	</g>
</g>
<g>
	<g>
		<rect x="603.5" y="245.5" stroke="#000000" stroke-miterlimit="10" width="21" height="18"/>
		<rect x="624.5" y="226.5" stroke="#000000" stroke-miterlimit="10" width="21" height="18"/>
		<rect x="665.5" y="226.5" stroke="#000000" stroke-miterlimit="10" width="21" height="18"/>
		<rect x="707.5" y="226.5" stroke="#000000" stroke-miterlimit="10" width="21" height="18"/>
		<rect x="749.5" y="226.5" stroke="#000000" stroke-miterlimit="10" width="21" height="18"/>
		<rect x="791.5" y="226.5" stroke="#000000" stroke-miterlimit="10" width="21" height="18"/>
		<rect x="833.5" y="226.5" stroke="#000000" stroke-miterlimit="10" width="21" height="19"/>
		<rect x="876.5" y="226.5" stroke="#000000" stroke-miterlimit="10" width="21" height="19"/>
		<rect x="918.5" y="226.5" stroke="#000000" stroke-miterlimit="10" width="21" height="19"/>
		<rect x="960.5" y="226.5" stroke="#000000" stroke-miterlimit="10" width="21" height="19"/>
		<rect x="1002.5" y="226.5" stroke="#000000" stroke-miterlimit="10" width="21" height="19"/>
		<rect x="1044.5" y="226.5" stroke="#000000" stroke-miterlimit="10" width="21" height="18"/>
		<rect x="1087.5" y="226.5" stroke="#000000" stroke-miterlimit="10" width="21" height="18"/>
		<rect x="1129.5" y="226.5" stroke="#000000" stroke-miterlimit="10" width="21" height="19"/>
		<rect x="1171.5" y="226.5" stroke="#000000" stroke-miterlimit="10" width="21" height="18"/>
		<rect x="1213.5" y="226.5" stroke="#000000" stroke-miterlimit="10" width="21" height="19"/>
		<rect x="1255.5" y="226.5" stroke="#000000" stroke-miterlimit="10" width="23" height="18"/>
		<rect x="624.5" y="245.5" fill="#EAC926" stroke="#000000" stroke-miterlimit="10" width="21" height="18"/>
		<rect x="665.5" y="245.5" fill="#EAC926" stroke="#000000" stroke-miterlimit="10" width="21" height="18"/>
		<rect x="707.5" y="245.5" fill="#EAC926" stroke="#000000" stroke-miterlimit="10" width="21" height="18"/>
		<rect x="749.5" y="245.5" fill="#EAC926" stroke="#000000" stroke-miterlimit="10" width="21" height="18"/>
		<rect x="791.5" y="245.5" fill="#EAC926" stroke="#000000" stroke-miterlimit="10" width="21" height="18"/>
		<rect x="833.5" y="244.5" fill="#EAC926" stroke="#000000" stroke-miterlimit="10" width="21" height="19"/>
		<rect x="876.5" y="245.5" fill="#EAC926" stroke="#000000" stroke-miterlimit="10" width="21" height="18"/>
		<rect x="918.5" y="245.5" fill="#EAC926" stroke="#000000" stroke-miterlimit="10" width="21" height="18"/>
		<rect x="960.5" y="244.5" fill="#EAC926" stroke="#000000" stroke-miterlimit="10" width="21" height="19"/>
		<rect x="1002.5" y="244.5" fill="#EAC926" stroke="#000000" stroke-miterlimit="10" width="21" height="19"/>
		<rect x="1044.5" y="245.5" fill="#EAC926" stroke="#000000" stroke-miterlimit="10" width="21" height="18"/>
		<rect x="1087.5" y="244.5" fill="#EAC926" stroke="#000000" stroke-miterlimit="10" width="21" height="19"/>
		<rect x="1129.5" y="245.5" fill="#EAC926" stroke="#000000" stroke-miterlimit="10" width="21" height="18"/>
		<rect x="1171.5" y="245.5" fill="#EAC926" stroke="#000000" stroke-miterlimit="10" width="21" height="18"/>
		<rect x="1255.5" y="244.5" fill="#EAC926" stroke="#000000" stroke-miterlimit="10" width="23" height="19"/>
		<rect x="1213.5" y="244.5" fill="#EAC926" stroke="#000000" stroke-miterlimit="10" width="21" height="19"/>
		<rect x="643.5" y="245.5" stroke="#000000" stroke-miterlimit="10" width="22" height="18"/>
		<rect x="686.5" y="245.5" stroke="#000000" stroke-miterlimit="10" width="21" height="18"/>
		<rect x="728.5" y="245.5" stroke="#000000" stroke-miterlimit="10" width="21" height="18"/>
		<rect x="770.5" y="245.5" stroke="#000000" stroke-miterlimit="10" width="21" height="18"/>
		<rect x="812.5" y="244.5" stroke="#000000" stroke-miterlimit="10" width="21" height="19"/>
		<rect x="854.5" y="244.5" stroke="#000000" stroke-miterlimit="10" width="22" height="19"/>
		<rect x="897.5" y="244.5" stroke="#000000" stroke-miterlimit="10" width="21" height="19"/>
		<rect x="939.5" y="245.5" stroke="#000000" stroke-miterlimit="10" width="21" height="18"/>
		<rect x="981.5" y="244.5" stroke="#000000" stroke-miterlimit="10" width="21" height="19"/>
		<rect x="1023.5" y="245.5" stroke="#000000" stroke-miterlimit="10" width="21" height="18"/>
		<rect x="1065.5" y="245.5" stroke="#000000" stroke-miterlimit="10" width="22" height="18"/>
		<rect x="1108.5" y="245.5" stroke="#000000" stroke-miterlimit="10" width="21" height="18"/>
		<rect x="1150.5" y="245.5" stroke="#000000" stroke-miterlimit="10" width="21" height="18"/>
		<rect x="1192.5" y="245.5" stroke="#000000" stroke-miterlimit="10" width="21" height="18"/>
		<rect x="1234.5" y="245.5" stroke="#000000" stroke-miterlimit="10" width="21" height="18"/>
	</g>
	<g>
		<rect x="0.5" y="246.5" stroke="#000000" stroke-miterlimit="10" width="18" height="18"/>
		<rect x="18.5" y="227.5" stroke="#000000" stroke-miterlimit="10" width="20" height="18"/>
		<rect x="55.5" y="227.5" stroke="#000000" stroke-miterlimit="10" width="19" height="18"/>
		<rect x="93.5" y="227.5" stroke="#000000" stroke-miterlimit="10" width="19" height="18"/>
		<rect x="130.5" y="227.5" stroke="#000000" stroke-miterlimit="10" width="19" height="18"/>
		<rect x="168.5" y="227.5" stroke="#000000" stroke-miterlimit="10" width="18" height="18"/>
		<rect x="206.5" y="227.5" stroke="#000000" stroke-miterlimit="10" width="18" height="19"/>
		<rect x="244.5" y="227.5" stroke="#000000" stroke-miterlimit="10" width="19" height="19"/>
		<rect x="282.5" y="227.5" stroke="#000000" stroke-miterlimit="10" width="18" height="19"/>
		<rect x="319.5" y="227.5" stroke="#000000" stroke-miterlimit="10" width="19" height="19"/>
		<rect x="356.5" y="227.5" stroke="#000000" stroke-miterlimit="10" width="19" height="19"/>
		<rect x="394.5" y="227.5" stroke="#000000" stroke-miterlimit="10" width="19" height="18"/>
		<rect x="432.5" y="227.5" stroke="#000000" stroke-miterlimit="10" width="19" height="18"/>
		<rect x="470.5" y="227.5" stroke="#000000" stroke-miterlimit="10" width="18" height="19"/>
		<rect x="508.5" y="227.5" stroke="#000000" stroke-miterlimit="10" width="18" height="18"/>
		<rect x="545.5" y="227.5" stroke="#000000" stroke-miterlimit="10" width="19" height="19"/>
		<rect x="583.5" y="227.5" stroke="#000000" stroke-miterlimit="10" width="20" height="18"/>
		<rect x="18.5" y="246.5" fill="#EAC926" stroke="#000000" stroke-miterlimit="10" width="20" height="18"/>
		<rect x="55.5" y="246.5" fill="#EAC926" stroke="#000000" stroke-miterlimit="10" width="19" height="18"/>
		<rect x="93.5" y="246.5" fill="#EAC926" stroke="#000000" stroke-miterlimit="10" width="19" height="18"/>
		<rect x="130.5" y="246.5" fill="#EAC926" stroke="#000000" stroke-miterlimit="10" width="19" height="18"/>
		<rect x="168.5" y="246.5" fill="#EAC926" stroke="#000000" stroke-miterlimit="10" width="18" height="18"/>
		<rect x="206.5" y="245.5" fill="#EAC926" stroke="#000000" stroke-miterlimit="10" width="18" height="19"/>
		<rect x="244.5" y="246.5" fill="#EAC926" stroke="#000000" stroke-miterlimit="10" width="19" height="18"/>
		<rect x="282.5" y="246.5" fill="#EAC926" stroke="#000000" stroke-miterlimit="10" width="18" height="18"/>
		<rect x="319.5" y="245.5" fill="#EAC926" stroke="#000000" stroke-miterlimit="10" width="19" height="19"/>
		<rect x="356.5" y="245.5" fill="#EAC926" stroke="#000000" stroke-miterlimit="10" width="19" height="19"/>
		<rect x="394.5" y="246.5" fill="#EAC926" stroke="#000000" stroke-miterlimit="10" width="19" height="18"/>
		<rect x="432.5" y="245.5" fill="#EAC926" stroke="#000000" stroke-miterlimit="10" width="19" height="19"/>
		<rect x="470.5" y="246.5" fill="#EAC926" stroke="#000000" stroke-miterlimit="10" width="18" height="18"/>
		<rect x="508.5" y="246.5" fill="#EAC926" stroke="#000000" stroke-miterlimit="10" width="18" height="18"/>
		<rect x="583.5" y="245.5" fill="#EAC926" stroke="#000000" stroke-miterlimit="10" width="20" height="19"/>
		<rect x="545.5" y="245.5" fill="#EAC926" stroke="#000000" stroke-miterlimit="10" width="19" height="19"/>
		<rect x="36.5" y="246.5" stroke="#000000" stroke-miterlimit="10" width="19" height="18"/>
		<rect x="74.5" y="246.5" stroke="#000000" stroke-miterlimit="10" width="19" height="18"/>
		<rect x="112.5" y="246.5" stroke="#000000" stroke-miterlimit="10" width="18" height="18"/>
		<rect x="149.5" y="246.5" stroke="#000000" stroke-miterlimit="10" width="19" height="18"/>
		<rect x="186.5" y="245.5" stroke="#000000" stroke-miterlimit="10" width="20" height="19"/>
		<rect x="224.5" y="245.5" stroke="#000000" stroke-miterlimit="10" width="20" height="19"/>
		<rect x="263.5" y="245.5" stroke="#000000" stroke-miterlimit="10" width="19" height="19"/>
		<rect x="300.5" y="246.5" stroke="#000000" stroke-miterlimit="10" width="19" height="18"/>
		<rect x="338.5" y="245.5" stroke="#000000" stroke-miterlimit="10" width="18" height="19"/>
		<rect x="375.5" y="246.5" stroke="#000000" stroke-miterlimit="10" width="19" height="18"/>
		<rect x="413.5" y="246.5" stroke="#000000" stroke-miterlimit="10" width="19" height="18"/>
		<rect x="451.5" y="246.5" stroke="#000000" stroke-miterlimit="10" width="19" height="18"/>
		<rect x="488.5" y="246.5" stroke="#000000" stroke-miterlimit="10" width="20" height="18"/>
		<rect x="526.5" y="246.5" stroke="#000000" stroke-miterlimit="10" width="19" height="18"/>
		<rect x="564.5" y="246.5" stroke="#000000" stroke-miterlimit="10" width="19" height="18"/>
	</g>
</g>
<g>
	<g>
		<rect x="603" y="820.5" stroke="#000000" stroke-miterlimit="10" width="21" height="18"/>
		<rect x="624" y="801.5" stroke="#000000" stroke-miterlimit="10" width="21" height="18"/>
		<rect x="665" y="801.5" stroke="#000000" stroke-miterlimit="10" width="21" height="18"/>
		<rect x="707" y="801.5" stroke="#000000" stroke-miterlimit="10" width="21" height="18"/>
		<rect x="749" y="801.5" stroke="#000000" stroke-miterlimit="10" width="21" height="18"/>
		<rect x="791" y="801.5" stroke="#000000" stroke-miterlimit="10" width="21" height="18"/>
		<rect x="833" y="801.5" stroke="#000000" stroke-miterlimit="10" width="21" height="19"/>
		<rect x="876" y="801.5" stroke="#000000" stroke-miterlimit="10" width="21" height="19"/>
		<rect x="918" y="801.5" stroke="#000000" stroke-miterlimit="10" width="21" height="19"/>
		<rect x="960" y="801.5" stroke="#000000" stroke-miterlimit="10" width="21" height="19"/>
		<rect x="1002" y="801.5" stroke="#000000" stroke-miterlimit="10" width="21" height="19"/>
		<rect x="1044" y="801.5" stroke="#000000" stroke-miterlimit="10" width="21" height="18"/>
		<rect x="1087" y="801.5" stroke="#000000" stroke-miterlimit="10" width="21" height="18"/>
		<rect x="1129" y="801.5" stroke="#000000" stroke-miterlimit="10" width="21" height="19"/>
		<rect x="1171" y="801.5" stroke="#000000" stroke-miterlimit="10" width="21" height="18"/>
		<rect x="1213" y="801.5" stroke="#000000" stroke-miterlimit="10" width="21" height="19"/>
		<rect x="1255" y="801.5" stroke="#000000" stroke-miterlimit="10" width="23" height="18"/>
		<rect x="624" y="820.5" fill="#EAC926" stroke="#000000" stroke-miterlimit="10" width="21" height="18"/>
		<rect x="665" y="820.5" fill="#EAC926" stroke="#000000" stroke-miterlimit="10" width="21" height="18"/>
		<rect x="707" y="820.5" fill="#EAC926" stroke="#000000" stroke-miterlimit="10" width="21" height="18"/>
		<rect x="749" y="820.5" fill="#EAC926" stroke="#000000" stroke-miterlimit="10" width="21" height="18"/>
		<rect x="791" y="820.5" fill="#EAC926" stroke="#000000" stroke-miterlimit="10" width="21" height="18"/>
		<rect x="833" y="819.5" fill="#EAC926" stroke="#000000" stroke-miterlimit="10" width="21" height="19"/>
		<rect x="876" y="820.5" fill="#EAC926" stroke="#000000" stroke-miterlimit="10" width="21" height="18"/>
		<rect x="918" y="820.5" fill="#EAC926" stroke="#000000" stroke-miterlimit="10" width="21" height="18"/>
		<rect x="960" y="819.5" fill="#EAC926" stroke="#000000" stroke-miterlimit="10" width="21" height="19"/>
		<rect x="1002" y="819.5" fill="#EAC926" stroke="#000000" stroke-miterlimit="10" width="21" height="19"/>
		<rect x="1044" y="820.5" fill="#EAC926" stroke="#000000" stroke-miterlimit="10" width="21" height="18"/>
		<rect x="1087" y="819.5" fill="#EAC926" stroke="#000000" stroke-miterlimit="10" width="21" height="19"/>
		<rect x="1129" y="820.5" fill="#EAC926" stroke="#000000" stroke-miterlimit="10" width="21" height="18"/>
		<rect x="1171" y="820.5" fill="#EAC926" stroke="#000000" stroke-miterlimit="10" width="21" height="18"/>
		<rect x="1255" y="819.5" fill="#EAC926" stroke="#000000" stroke-miterlimit="10" width="23" height="19"/>
		<rect x="1213" y="819.5" fill="#EAC926" stroke="#000000" stroke-miterlimit="10" width="21" height="19"/>
		<rect x="643" y="820.5" stroke="#000000" stroke-miterlimit="10" width="22" height="18"/>
		<rect x="686" y="820.5" stroke="#000000" stroke-miterlimit="10" width="21" height="18"/>
		<rect x="728" y="820.5" stroke="#000000" stroke-miterlimit="10" width="21" height="18"/>
		<rect x="770" y="820.5" stroke="#000000" stroke-miterlimit="10" width="21" height="18"/>
		<rect x="812" y="819.5" stroke="#000000" stroke-miterlimit="10" width="21" height="19"/>
		<rect x="854" y="819.5" stroke="#000000" stroke-miterlimit="10" width="22" height="19"/>
		<rect x="897" y="819.5" stroke="#000000" stroke-miterlimit="10" width="21" height="19"/>
		<rect x="939" y="820.5" stroke="#000000" stroke-miterlimit="10" width="21" height="18"/>
		<rect x="981" y="819.5" stroke="#000000" stroke-miterlimit="10" width="21" height="19"/>
		<rect x="1023" y="820.5" stroke="#000000" stroke-miterlimit="10" width="21" height="18"/>
		<rect x="1065" y="820.5" stroke="#000000" stroke-miterlimit="10" width="22" height="18"/>
		<rect x="1108" y="820.5" stroke="#000000" stroke-miterlimit="10" width="21" height="18"/>
		<rect x="1150" y="820.5" stroke="#000000" stroke-miterlimit="10" width="21" height="18"/>
		<rect x="1192" y="820.5" stroke="#000000" stroke-miterlimit="10" width="21" height="18"/>
		<rect x="1234" y="820.5" stroke="#000000" stroke-miterlimit="10" width="21" height="18"/>
	</g>
	<g>
		<rect x="0" y="821.5" stroke="#000000" stroke-miterlimit="10" width="18" height="18"/>
		<rect x="18" y="802.5" stroke="#000000" stroke-miterlimit="10" width="20" height="18"/>
		<rect x="55" y="802.5" stroke="#000000" stroke-miterlimit="10" width="19" height="18"/>
		<rect x="93" y="802.5" stroke="#000000" stroke-miterlimit="10" width="19" height="18"/>
		<rect x="130" y="802.5" stroke="#000000" stroke-miterlimit="10" width="19" height="18"/>
		<rect x="168" y="802.5" stroke="#000000" stroke-miterlimit="10" width="18" height="18"/>
		<rect x="206" y="802.5" stroke="#000000" stroke-miterlimit="10" width="18" height="19"/>
		<rect x="244" y="802.5" stroke="#000000" stroke-miterlimit="10" width="19" height="19"/>
		<rect x="282" y="802.5" stroke="#000000" stroke-miterlimit="10" width="18" height="19"/>
		<rect x="319" y="802.5" stroke="#000000" stroke-miterlimit="10" width="19" height="19"/>
		<rect x="356" y="802.5" stroke="#000000" stroke-miterlimit="10" width="19" height="19"/>
		<rect x="394" y="802.5" stroke="#000000" stroke-miterlimit="10" width="19" height="18"/>
		<rect x="432" y="802.5" stroke="#000000" stroke-miterlimit="10" width="19" height="18"/>
		<rect x="470" y="802.5" stroke="#000000" stroke-miterlimit="10" width="18" height="19"/>
		<rect x="508" y="802.5" stroke="#000000" stroke-miterlimit="10" width="18" height="18"/>
		<rect x="545" y="802.5" stroke="#000000" stroke-miterlimit="10" width="19" height="19"/>
		<rect x="583" y="802.5" stroke="#000000" stroke-miterlimit="10" width="20" height="18"/>
		<rect x="18" y="821.5" fill="#EAC926" stroke="#000000" stroke-miterlimit="10" width="20" height="18"/>
		<rect x="55" y="821.5" fill="#EAC926" stroke="#000000" stroke-miterlimit="10" width="19" height="18"/>
		<rect x="93" y="821.5" fill="#EAC926" stroke="#000000" stroke-miterlimit="10" width="19" height="18"/>
		<rect x="130" y="821.5" fill="#EAC926" stroke="#000000" stroke-miterlimit="10" width="19" height="18"/>
		<rect x="168" y="821.5" fill="#EAC926" stroke="#000000" stroke-miterlimit="10" width="18" height="18"/>
		<rect x="206" y="820.5" fill="#EAC926" stroke="#000000" stroke-miterlimit="10" width="18" height="19"/>
		<rect x="244" y="821.5" fill="#EAC926" stroke="#000000" stroke-miterlimit="10" width="19" height="18"/>
		<rect x="282" y="821.5" fill="#EAC926" stroke="#000000" stroke-miterlimit="10" width="18" height="18"/>
		<rect x="319" y="820.5" fill="#EAC926" stroke="#000000" stroke-miterlimit="10" width="19" height="19"/>
		<rect x="356" y="820.5" fill="#EAC926" stroke="#000000" stroke-miterlimit="10" width="19" height="19"/>
		<rect x="394" y="821.5" fill="#EAC926" stroke="#000000" stroke-miterlimit="10" width="19" height="18"/>
		<rect x="432" y="820.5" fill="#EAC926" stroke="#000000" stroke-miterlimit="10" width="19" height="19"/>
		<rect x="470" y="821.5" fill="#EAC926" stroke="#000000" stroke-miterlimit="10" width="18" height="18"/>
		<rect x="508" y="821.5" fill="#EAC926" stroke="#000000" stroke-miterlimit="10" width="18" height="18"/>
		<rect x="583" y="820.5" fill="#EAC926" stroke="#000000" stroke-miterlimit="10" width="20" height="19"/>
		<rect x="545" y="820.5" fill="#EAC926" stroke="#000000" stroke-miterlimit="10" width="19" height="19"/>
		<rect x="36" y="821.5" stroke="#000000" stroke-miterlimit="10" width="19" height="18"/>
		<rect x="74" y="821.5" stroke="#000000" stroke-miterlimit="10" width="19" height="18"/>
		<rect x="112" y="821.5" stroke="#000000" stroke-miterlimit="10" width="18" height="18"/>
		<rect x="149" y="821.5" stroke="#000000" stroke-miterlimit="10" width="19" height="18"/>
		<rect x="186" y="820.5" stroke="#000000" stroke-miterlimit="10" width="20" height="19"/>
		<rect x="224" y="820.5" stroke="#000000" stroke-miterlimit="10" width="20" height="19"/>
		<rect x="263" y="820.5" stroke="#000000" stroke-miterlimit="10" width="19" height="19"/>
		<rect x="300" y="821.5" stroke="#000000" stroke-miterlimit="10" width="19" height="18"/>
		<rect x="338" y="820.5" stroke="#000000" stroke-miterlimit="10" width="18" height="19"/>
		<rect x="375" y="821.5" stroke="#000000" stroke-miterlimit="10" width="19" height="18"/>
		<rect x="413" y="821.5" stroke="#000000" stroke-miterlimit="10" width="19" height="18"/>
		<rect x="451" y="821.5" stroke="#000000" stroke-miterlimit="10" width="19" height="18"/>
		<rect x="488" y="821.5" stroke="#000000" stroke-miterlimit="10" width="20" height="18"/>
		<rect x="526" y="821.5" stroke="#000000" stroke-miterlimit="10" width="19" height="18"/>
		<rect x="564" y="821.5" stroke="#000000" stroke-miterlimit="10" width="19" height="18"/>
	</g>
</g>
<g>
	<g>
		<rect x="603" y="858.5" stroke="#000000" stroke-miterlimit="10" width="21" height="18"/>
		<rect x="624" y="839.5" stroke="#000000" stroke-miterlimit="10" width="21" height="18"/>
		<rect x="665" y="839.5" stroke="#000000" stroke-miterlimit="10" width="21" height="18"/>
		<rect x="707" y="839.5" stroke="#000000" stroke-miterlimit="10" width="21" height="18"/>
		<rect x="749" y="839.5" stroke="#000000" stroke-miterlimit="10" width="21" height="18"/>
		<rect x="791" y="839.5" stroke="#000000" stroke-miterlimit="10" width="21" height="18"/>
		<rect x="833" y="839.5" stroke="#000000" stroke-miterlimit="10" width="21" height="19"/>
		<rect x="876" y="839.5" stroke="#000000" stroke-miterlimit="10" width="21" height="19"/>
		<rect x="918" y="839.5" stroke="#000000" stroke-miterlimit="10" width="21" height="19"/>
		<rect x="960" y="839.5" stroke="#000000" stroke-miterlimit="10" width="21" height="19"/>
		<rect x="1002" y="839.5" stroke="#000000" stroke-miterlimit="10" width="21" height="19"/>
		<rect x="1044" y="839.5" stroke="#000000" stroke-miterlimit="10" width="21" height="18"/>
		<rect x="1087" y="839.5" stroke="#000000" stroke-miterlimit="10" width="21" height="18"/>
		<rect x="1129" y="839.5" stroke="#000000" stroke-miterlimit="10" width="21" height="19"/>
		<rect x="1171" y="839.5" stroke="#000000" stroke-miterlimit="10" width="21" height="18"/>
		<rect x="1213" y="839.5" stroke="#000000" stroke-miterlimit="10" width="21" height="19"/>
		<rect x="1255" y="839.5" stroke="#000000" stroke-miterlimit="10" width="23" height="18"/>
		<rect x="624" y="858.5" fill="#EAC926" stroke="#000000" stroke-miterlimit="10" width="21" height="18"/>
		<rect x="665" y="858.5" fill="#EAC926" stroke="#000000" stroke-miterlimit="10" width="21" height="18"/>
		<rect x="707" y="858.5" fill="#EAC926" stroke="#000000" stroke-miterlimit="10" width="21" height="18"/>
		<rect x="749" y="858.5" fill="#EAC926" stroke="#000000" stroke-miterlimit="10" width="21" height="18"/>
		<rect x="791" y="858.5" fill="#EAC926" stroke="#000000" stroke-miterlimit="10" width="21" height="18"/>
		<rect x="833" y="857.5" fill="#EAC926" stroke="#000000" stroke-miterlimit="10" width="21" height="19"/>
		<rect x="876" y="858.5" fill="#EAC926" stroke="#000000" stroke-miterlimit="10" width="21" height="18"/>
		<rect x="918" y="858.5" fill="#EAC926" stroke="#000000" stroke-miterlimit="10" width="21" height="18"/>
		<rect x="960" y="857.5" fill="#EAC926" stroke="#000000" stroke-miterlimit="10" width="21" height="19"/>
		<rect x="1002" y="857.5" fill="#EAC926" stroke="#000000" stroke-miterlimit="10" width="21" height="19"/>
		<rect x="1044" y="858.5" fill="#EAC926" stroke="#000000" stroke-miterlimit="10" width="21" height="18"/>
		<rect x="1087" y="857.5" fill="#EAC926" stroke="#000000" stroke-miterlimit="10" width="21" height="19"/>
		<rect x="1129" y="858.5" fill="#EAC926" stroke="#000000" stroke-miterlimit="10" width="21" height="18"/>
		<rect x="1171" y="858.5" fill="#EAC926" stroke="#000000" stroke-miterlimit="10" width="21" height="18"/>
		<rect x="1255" y="857.5" fill="#EAC926" stroke="#000000" stroke-miterlimit="10" width="23" height="19"/>
		<rect x="1213" y="857.5" fill="#EAC926" stroke="#000000" stroke-miterlimit="10" width="21" height="19"/>
		<rect x="643" y="858.5" stroke="#000000" stroke-miterlimit="10" width="22" height="18"/>
		<rect x="686" y="858.5" stroke="#000000" stroke-miterlimit="10" width="21" height="18"/>
		<rect x="728" y="858.5" stroke="#000000" stroke-miterlimit="10" width="21" height="18"/>
		<rect x="770" y="858.5" stroke="#000000" stroke-miterlimit="10" width="21" height="18"/>
		<rect x="812" y="857.5" stroke="#000000" stroke-miterlimit="10" width="21" height="19"/>
		<rect x="854" y="857.5" stroke="#000000" stroke-miterlimit="10" width="22" height="19"/>
		<rect x="897" y="857.5" stroke="#000000" stroke-miterlimit="10" width="21" height="19"/>
		<rect x="939" y="858.5" stroke="#000000" stroke-miterlimit="10" width="21" height="18"/>
		<rect x="981" y="857.5" stroke="#000000" stroke-miterlimit="10" width="21" height="19"/>
		<rect x="1023" y="858.5" stroke="#000000" stroke-miterlimit="10" width="21" height="18"/>
		<rect x="1065" y="858.5" stroke="#000000" stroke-miterlimit="10" width="22" height="18"/>
		<rect x="1108" y="858.5" stroke="#000000" stroke-miterlimit="10" width="21" height="18"/>
		<rect x="1150" y="858.5" stroke="#000000" stroke-miterlimit="10" width="21" height="18"/>
		<rect x="1192" y="858.5" stroke="#000000" stroke-miterlimit="10" width="21" height="18"/>
		<rect x="1234" y="858.5" stroke="#000000" stroke-miterlimit="10" width="21" height="18"/>
	</g>
	<g>
		<rect x="0" y="859.5" stroke="#000000" stroke-miterlimit="10" width="18" height="18"/>
		<rect x="18" y="840.5" stroke="#000000" stroke-miterlimit="10" width="20" height="18"/>
		<rect x="55" y="840.5" stroke="#000000" stroke-miterlimit="10" width="19" height="18"/>
		<rect x="93" y="840.5" stroke="#000000" stroke-miterlimit="10" width="19" height="18"/>
		<rect x="130" y="840.5" stroke="#000000" stroke-miterlimit="10" width="19" height="18"/>
		<rect x="168" y="840.5" stroke="#000000" stroke-miterlimit="10" width="18" height="18"/>
		<rect x="206" y="840.5" stroke="#000000" stroke-miterlimit="10" width="18" height="19"/>
		<rect x="244" y="840.5" stroke="#000000" stroke-miterlimit="10" width="19" height="19"/>
		<rect x="282" y="840.5" stroke="#000000" stroke-miterlimit="10" width="18" height="19"/>
		<rect x="319" y="840.5" stroke="#000000" stroke-miterlimit="10" width="19" height="19"/>
		<rect x="356" y="840.5" stroke="#000000" stroke-miterlimit="10" width="19" height="19"/>
		<rect x="394" y="840.5" stroke="#000000" stroke-miterlimit="10" width="19" height="18"/>
		<rect x="432" y="840.5" stroke="#000000" stroke-miterlimit="10" width="19" height="18"/>
		<rect x="470" y="840.5" stroke="#000000" stroke-miterlimit="10" width="18" height="19"/>
		<rect x="508" y="840.5" stroke="#000000" stroke-miterlimit="10" width="18" height="18"/>
		<rect x="545" y="840.5" stroke="#000000" stroke-miterlimit="10" width="19" height="19"/>
		<rect x="583" y="840.5" stroke="#000000" stroke-miterlimit="10" width="20" height="18"/>
		<rect x="18" y="859.5" fill="#EAC926" stroke="#000000" stroke-miterlimit="10" width="20" height="18"/>
		<rect x="55" y="859.5" fill="#EAC926" stroke="#000000" stroke-miterlimit="10" width="19" height="18"/>
		<rect x="93" y="859.5" fill="#EAC926" stroke="#000000" stroke-miterlimit="10" width="19" height="18"/>
		<rect x="130" y="859.5" fill="#EAC926" stroke="#000000" stroke-miterlimit="10" width="19" height="18"/>
		<rect x="168" y="859.5" fill="#EAC926" stroke="#000000" stroke-miterlimit="10" width="18" height="18"/>
		<rect x="206" y="858.5" fill="#EAC926" stroke="#000000" stroke-miterlimit="10" width="18" height="19"/>
		<rect x="244" y="859.5" fill="#EAC926" stroke="#000000" stroke-miterlimit="10" width="19" height="18"/>
		<rect x="282" y="859.5" fill="#EAC926" stroke="#000000" stroke-miterlimit="10" width="18" height="18"/>
		<rect x="319" y="858.5" fill="#EAC926" stroke="#000000" stroke-miterlimit="10" width="19" height="19"/>
		<rect x="356" y="858.5" fill="#EAC926" stroke="#000000" stroke-miterlimit="10" width="19" height="19"/>
		<rect x="394" y="859.5" fill="#EAC926" stroke="#000000" stroke-miterlimit="10" width="19" height="18"/>
		<rect x="432" y="858.5" fill="#EAC926" stroke="#000000" stroke-miterlimit="10" width="19" height="19"/>
		<rect x="470" y="859.5" fill="#EAC926" stroke="#000000" stroke-miterlimit="10" width="18" height="18"/>
		<rect x="508" y="859.5" fill="#EAC926" stroke="#000000" stroke-miterlimit="10" width="18" height="18"/>
		<rect x="583" y="858.5" fill="#EAC926" stroke="#000000" stroke-miterlimit="10" width="20" height="19"/>
		<rect x="545" y="858.5" fill="#EAC926" stroke="#000000" stroke-miterlimit="10" width="19" height="19"/>
		<rect x="36" y="859.5" stroke="#000000" stroke-miterlimit="10" width="19" height="18"/>
		<rect x="74" y="859.5" stroke="#000000" stroke-miterlimit="10" width="19" height="18"/>
		<rect x="112" y="859.5" stroke="#000000" stroke-miterlimit="10" width="18" height="18"/>
		<rect x="149" y="859.5" stroke="#000000" stroke-miterlimit="10" width="19" height="18"/>
		<rect x="186" y="858.5" stroke="#000000" stroke-miterlimit="10" width="20" height="19"/>
		<rect x="224" y="858.5" stroke="#000000" stroke-miterlimit="10" width="20" height="19"/>
		<rect x="263" y="858.5" stroke="#000000" stroke-miterlimit="10" width="19" height="19"/>
		<rect x="300" y="859.5" stroke="#000000" stroke-miterlimit="10" width="19" height="18"/>
		<rect x="338" y="858.5" stroke="#000000" stroke-miterlimit="10" width="18" height="19"/>
		<rect x="375" y="859.5" stroke="#000000" stroke-miterlimit="10" width="19" height="18"/>
		<rect x="413" y="859.5" stroke="#000000" stroke-miterlimit="10" width="19" height="18"/>
		<rect x="451" y="859.5" stroke="#000000" stroke-miterlimit="10" width="19" height="18"/>
		<rect x="488" y="859.5" stroke="#000000" stroke-miterlimit="10" width="20" height="18"/>
		<rect x="526" y="859.5" stroke="#000000" stroke-miterlimit="10" width="19" height="18"/>
		<rect x="564" y="859.5" stroke="#000000" stroke-miterlimit="10" width="19" height="18"/>
	</g>
</g>
</svg>
