<?xml version="1.0" encoding="utf-8"?>
<!-- Generator: Adobe Illustrator 16.0.0, SVG Export Plug-In . SVG Version: 6.00 Build 0)  -->
<!DOCTYPE svg PUBLIC "-//W3C//DTD SVG 1.1//EN" "http://www.w3.org/Graphics/SVG/1.1/DTD/svg11.dtd">
<svg version="1.1" id="Layer_1" xmlns="http://www.w3.org/2000/svg" xmlns:xlink="http://www.w3.org/1999/xlink" x="0px" y="0px"
	 width="100px" height="100px" viewBox="0 0 100 100" enable-background="new 0 0 100 100" xml:space="preserve">
<circle fill="none" cx="50.214" cy="49.859" r="50"/>
<g>
	
		<ellipse fill="none" stroke="#EAC926" stroke-width="4" stroke-miterlimit="10" stroke-dasharray="1.9915,1.9915" cx="50.214" cy="49.859" rx="47.173" ry="46.672">
	
		<animateTransform  type="rotate" fill="remove" restart="always" calcMode="linear" additive="replace" accumulate="none" repeatCount="indefinite" dur="1s" to="360 50 50" from="0 50 50" attributeType="XML" attributeName="transform">
		</animateTransform>
	</ellipse>
</g>
<text transform="matrix(1 0 0 1 30.2671 65.9863)" fill="#E5CA5A" font-family="'ContextRepriseExtraBlackSSi'" font-size="48">M </text>
<g>
	
		<ellipse fill="none" stroke="#EAC926" stroke-width="6" stroke-miterlimit="10" stroke-dasharray="4.0312,4.0312" cx="50.213" cy="49.859" rx="40.991" ry="41.154">
	
		<animateTransform  type="rotate" fill="remove" restart="always" calcMode="linear" additive="replace" accumulate="none" repeatCount="indefinite" dur="5s" to="360 50 50" from="0 50 50" attributeType="XML" attributeName="transform">
		</animateTransform>
	</ellipse>
</g>
<g>
	
		<ellipse fill="none" stroke="#EAC926" stroke-width="8" stroke-miterlimit="10" stroke-dasharray="4.0139,4.0139" cx="50.213" cy="49.859" rx="33.162" ry="33.293">
	
		<animateTransform  type="rotate" fill="remove" restart="always" calcMode="linear" additive="replace" accumulate="none" repeatCount="indefinite" dur="10s" to="360 50 50" from="0 50 50" attributeType="XML" attributeName="transform">
		</animateTransform>
	</ellipse>
</g>
<g>
	<rect x="32.25" y="65.07" fill="#EAC926" width="3" height="3"/>
	<rect x="35.25" y="65.07" width="3" height="3"/>
	<rect x="38.25" y="65.07" fill="#EAC926" width="3" height="3"/>
	<rect x="35.25" y="62.068" fill="#EAC926" width="3" height="3"/>
	<rect x="32.25" y="62.068" width="3" height="3"/>
	<rect x="38.25" y="62.068" width="3" height="3"/>
</g>
<g>
	<rect x="32.25" y="59.068" fill="#EAC926" width="3" height="3"/>
	<rect x="35.25" y="59.068" width="3" height="3"/>
	<rect x="38.25" y="59.068" fill="#EAC926" width="3" height="3"/>
	<rect x="35.25" y="56.066" fill="#EAC926" width="3" height="3"/>
	<rect x="32.25" y="56.066" width="3" height="3"/>
	<rect x="38.25" y="56.066" width="3" height="3"/>
</g>
<g>
	<rect x="32.25" y="53.002" fill="#EAC926" width="3" height="3"/>
	<rect x="35.25" y="53.002" width="3" height="3"/>
	<rect x="38.25" y="53.002" fill="#EAC926" width="3" height="3"/>
	<rect x="35.25" y="50" fill="#EAC926" width="3" height="3"/>
	<rect x="32.25" y="50" width="3" height="3"/>
	<rect x="38.25" y="50" width="3" height="3"/>
</g>
<g>
	<rect x="32.25" y="46.859" fill="#EAC926" width="3" height="3"/>
	<rect x="35.25" y="46.859" width="3" height="3"/>
	<rect x="38.25" y="46.859" fill="#EAC926" width="3" height="3"/>
	<rect x="35.25" y="43.857" fill="#EAC926" width="3" height="3"/>
	<rect x="32.25" y="43.857" width="3" height="3"/>
	<rect x="38.25" y="43.857" width="3" height="3"/>
</g>
<g>
	<rect x="32.25" y="40.857" fill="#EAC926" width="3" height="3"/>
	<rect x="35.25" y="40.857" width="3" height="3"/>
	<rect x="38.25" y="40.857" fill="#EAC926" width="3" height="3"/>
	<rect x="35.25" y="37.855" fill="#EAC926" width="3" height="3"/>
	<rect x="32.25" y="37.855" width="3" height="3"/>
	<rect x="38.25" y="37.855" width="3" height="3"/>
</g>
<g>
	<rect x="32.25" y="34.856" fill="#EAC926" width="3" height="3"/>
	<rect x="35.25" y="34.856" width="3" height="3"/>
	<rect x="38.25" y="34.856" fill="#EAC926" width="3" height="3"/>
	<rect x="35.25" y="31.854" fill="#EAC926" width="3" height="3"/>
	<rect x="32.25" y="31.854" width="3" height="3"/>
	<rect x="38.25" y="31.854" width="3" height="3"/>
</g>
<g>
	<rect x="56.584" y="65.404" fill="#EAC926" width="3" height="3"/>
	<rect x="59.584" y="65.404" width="3" height="3"/>
	<rect x="62.584" y="65.404" fill="#EAC926" width="3" height="3"/>
	<rect x="59.584" y="62.402" fill="#EAC926" width="3" height="3"/>
	<rect x="56.584" y="62.402" width="3" height="3"/>
	<rect x="62.584" y="62.402" width="3" height="3"/>
</g>
<g>
	<rect x="56.584" y="59.404" fill="#EAC926" width="3" height="3"/>
	<rect x="59.584" y="59.404" width="3" height="3"/>
	<rect x="62.584" y="59.404" fill="#EAC926" width="3" height="3"/>
	<rect x="59.584" y="56.402" fill="#EAC926" width="3" height="3"/>
	<rect x="56.584" y="56.402" width="3" height="3"/>
	<rect x="62.584" y="56.402" width="3" height="3"/>
</g>
<g>
	<rect x="56.584" y="53.004" fill="#EAC926" width="3" height="3"/>
	<rect x="59.584" y="53.004" width="3" height="3"/>
	<rect x="62.584" y="53.004" fill="#EAC926" width="3" height="3"/>
	<rect x="59.584" y="50.002" fill="#EAC926" width="3" height="3"/>
	<rect x="56.584" y="50.002" width="3" height="3"/>
	<rect x="62.584" y="50.002" width="3" height="3"/>
</g>
<g>
	<rect x="56.584" y="47.002" fill="#EAC926" width="3" height="3"/>
	<rect x="59.584" y="47.002" width="3" height="3"/>
	<rect x="62.584" y="47.002" fill="#EAC926" width="3" height="3"/>
	<rect x="59.584" y="44" fill="#EAC926" width="3" height="3"/>
	<rect x="56.584" y="44" width="3" height="3"/>
	<rect x="62.584" y="44" width="3" height="3"/>
</g>
<g>
	<rect x="56.584" y="40.858" fill="#EAC926" width="3" height="3"/>
	<rect x="59.584" y="40.858" width="3" height="3"/>
	<rect x="62.584" y="40.858" fill="#EAC926" width="3" height="3"/>
	<rect x="59.584" y="37.856" fill="#EAC926" width="3" height="3"/>
	<rect x="56.584" y="37.856" width="3" height="3"/>
	<rect x="62.584" y="37.856" width="3" height="3"/>
</g>
<g>
	<rect x="56.584" y="34.855" fill="#EAC926" width="3" height="3"/>
	<rect x="59.584" y="34.855" width="3" height="3"/>
	<rect x="62.584" y="34.855" fill="#EAC926" width="3" height="3"/>
	<rect x="59.584" y="31.853" fill="#EAC926" width="3" height="3"/>
	<rect x="56.584" y="31.853" width="3" height="3"/>
	<rect x="62.584" y="31.853" width="3" height="3"/>
</g>
</svg>
