<?xml version="1.0" encoding="utf-8"?>
<!-- Generator: Adobe Illustrator 16.0.0, SVG Export Plug-In . SVG Version: 6.00 Build 0)  -->
<!DOCTYPE svg PUBLIC "-//W3C//DTD SVG 1.1//EN" "http://www.w3.org/Graphics/SVG/1.1/DTD/svg11.dtd">
<svg version="1.1" id="Layer_1" xmlns="http://www.w3.org/2000/svg" xmlns:xlink="http://www.w3.org/1999/xlink" x="0px" y="0px"
	 width="500px" height="500px" viewBox="0 0 500 500" enable-background="new 0 0 500 500" xml:space="preserve">
<rect fill="#EAC926" width="500" height="500"/>
<polygon points="379.701,-0.119 251.021,252.708 121.548,0.285 "/>
<polygon points="380,500 120,500 120,268 250.885,497.812 380,268 "/>
<g>
	<g>
		<rect x="460" y="420" fill="#EAC926" width="40" height="40"/>
		<rect x="460" y="460" width="40" height="40"/>
	</g>
	<g>
		<rect x="380" y="420" fill="#EAC926" width="40" height="40"/>
		<rect x="380" y="460" width="40" height="40"/>
	</g>
	<g>
		<rect x="380" y="340" fill="#EAC926" width="40" height="40"/>
		<rect x="380" y="380" width="40" height="40"/>
	</g>
	<g>
		<rect x="380" y="260" fill="#EAC926" width="40" height="40"/>
		<rect x="380" y="300" width="40" height="40"/>
	</g>
	<g>
		<rect x="380" y="178" fill="#EAC926" width="40" height="40"/>
		<rect x="380" y="218" width="40" height="40"/>
	</g>
	<g>
		<rect x="380" y="98" fill="#EAC926" width="40" height="40"/>
		<rect x="380" y="138" width="40" height="40"/>
	</g>
	<g>
		<rect x="380" y="18" fill="#EAC926" width="40" height="40"/>
		<rect x="380" y="58" width="40" height="40"/>
	</g>
	<g>
		<rect x="420" y="460" fill="#EAC926" width="40" height="40"/>
		<rect x="420" y="420" width="40" height="40"/>
	</g>
	<g>
		<rect x="420" y="380" fill="#EAC926" width="40" height="40"/>
		<rect x="420" y="340" width="40" height="40"/>
	</g>
	<g>
		<rect x="420" y="300" fill="#EAC926" width="40" height="40"/>
		<rect x="420" y="260" width="40" height="40"/>
	</g>
	<g>
		<rect x="420" y="218" fill="#EAC926" width="40" height="40"/>
		<rect x="420" y="178" width="40" height="40"/>
	</g>
	<g>
		<rect x="420" y="138" fill="#EAC926" width="40" height="40"/>
		<rect x="420" y="98" width="40" height="40"/>
	</g>
	<g>
		<rect x="420" y="58" fill="#EAC926" width="40" height="40"/>
		<rect x="420" y="18" width="40" height="40"/>
	</g>
	<g>
		<rect x="460" y="340" fill="#EAC926" width="40" height="40"/>
		<rect x="460" y="380" width="40" height="40"/>
	</g>
	<g>
		<rect x="460" y="260" fill="#EAC926" width="40" height="40"/>
		<rect x="460" y="300" width="40" height="40"/>
	</g>
	<g>
		<rect x="460" y="178" fill="#EAC926" width="40" height="40"/>
		<rect x="460" y="218" width="40" height="40"/>
	</g>
	<g>
		<rect x="460" y="98" fill="#EAC926" width="40" height="40"/>
		<rect x="460" y="138" width="40" height="40"/>
	</g>
	<g>
		<rect x="460" y="18" fill="#EAC926" width="40" height="40"/>
		<rect x="460" y="58" width="40" height="40"/>
	</g>
</g>
<g>
	<g>
		<rect x="80" y="421" fill="#EAC926" width="40" height="40"/>
		<rect x="80" y="461" width="40" height="40"/>
	</g>
	<g>
		<rect y="421" fill="#EAC926" width="40" height="40"/>
		<rect y="461" width="40" height="40"/>
	</g>
	<g>
		<rect y="341" fill="#EAC926" width="40" height="40"/>
		<rect y="381" width="40" height="40"/>
	</g>
	<g>
		<rect y="261" fill="#EAC926" width="40" height="40"/>
		<rect y="301" width="40" height="40"/>
	</g>
	<g>
		<rect y="179" fill="#EAC926" width="40" height="40"/>
		<rect y="219" width="40" height="40"/>
	</g>
	<g>
		<rect y="99" fill="#EAC926" width="40" height="40"/>
		<rect y="139" width="40" height="40"/>
	</g>
	<g>
		<rect y="19" fill="#EAC926" width="40" height="40"/>
		<rect y="59" width="40" height="40"/>
	</g>
	<g>
		<rect x="40" y="461" fill="#EAC926" width="40" height="40"/>
		<rect x="40" y="421" width="40" height="40"/>
	</g>
	<g>
		<rect x="40" y="381" fill="#EAC926" width="40" height="40"/>
		<rect x="40" y="341" width="40" height="40"/>
	</g>
	<g>
		<rect x="40" y="301" fill="#EAC926" width="40" height="40"/>
		<rect x="40" y="261" width="40" height="40"/>
	</g>
	<g>
		<rect x="40" y="219" fill="#EAC926" width="40" height="40"/>
		<rect x="40" y="179" width="40" height="40"/>
	</g>
	<g>
		<rect x="40" y="139" fill="#EAC926" width="40" height="40"/>
		<rect x="40" y="99" width="40" height="40"/>
	</g>
	<g>
		<rect x="40" y="59" fill="#EAC926" width="40" height="40"/>
		<rect x="40" y="19" width="40" height="40"/>
	</g>
	<g>
		<rect x="80" y="341" fill="#EAC926" width="40" height="40"/>
		<rect x="80" y="381" width="40" height="40"/>
	</g>
	<g>
		<rect x="80" y="261" fill="#EAC926" width="40" height="40"/>
		<rect x="80" y="301" width="40" height="40"/>
	</g>
	<g>
		<rect x="80" y="179" fill="#EAC926" width="40" height="40"/>
		<rect x="80" y="219" width="40" height="40"/>
	</g>
	<g>
		<rect x="80" y="99" fill="#EAC926" width="40" height="40"/>
		<rect x="80" y="139" width="40" height="40"/>
	</g>
	<g>
		<rect x="80" y="19" fill="#EAC926" width="40" height="40"/>
		<rect x="80" y="59" width="40" height="40"/>
	</g>
</g>
</svg>
