<?xml version="1.0" encoding="utf-8"?>
<!-- Generator: Adobe Illustrator 16.0.0, SVG Export Plug-In . SVG Version: 6.00 Build 0)  -->
<!DOCTYPE svg PUBLIC "-//W3C//DTD SVG 1.1//EN" "http://www.w3.org/Graphics/SVG/1.1/DTD/svg11.dtd">
<svg version="1.1" id="Layer_1" xmlns="http://www.w3.org/2000/svg" xmlns:xlink="http://www.w3.org/1999/xlink" x="0px" y="0px"
	 width="960px" height="560px" viewBox="0 0 960 560" enable-background="new 0 0 960 560" xml:space="preserve">
<rect x="-0.5" y="80.5" stroke="#000000" stroke-miterlimit="10" width="960" height="480"/>
<g>
	<rect x="-0.5" y="60.5" stroke="#000000" stroke-miterlimit="10" width="20" height="20"/>
	<rect x="19.5" y="40.5" stroke="#000000" stroke-miterlimit="10" width="20" height="20"/>
	<rect x="39.5" y="60.5" stroke="#000000" stroke-miterlimit="10" width="20" height="20"/>
	<rect x="59.5" y="40.5" stroke="#000000" stroke-miterlimit="10" width="20" height="20"/>
	<rect x="79.5" y="60.5" stroke="#000000" stroke-miterlimit="10" width="20" height="20"/>
	<rect x="99.5" y="40.5" stroke="#000000" stroke-miterlimit="10" width="20" height="20"/>
	<rect x="119.5" y="60.5" stroke="#000000" stroke-miterlimit="10" width="20" height="20"/>
	<rect x="139.5" y="40.5" stroke="#000000" stroke-miterlimit="10" width="20" height="20"/>
	<rect x="159.5" y="60.5" stroke="#000000" stroke-miterlimit="10" width="20" height="20"/>
	<rect x="179.5" y="40.5" stroke="#000000" stroke-miterlimit="10" width="20" height="20"/>
	<rect x="199.5" y="60.5" stroke="#000000" stroke-miterlimit="10" width="20" height="20"/>
	<rect x="219.5" y="40.5" stroke="#000000" stroke-miterlimit="10" width="20" height="20"/>
	<rect x="239.5" y="60.5" stroke="#000000" stroke-miterlimit="10" width="20" height="20"/>
	<rect x="259.5" y="40.5" stroke="#000000" stroke-miterlimit="10" width="20" height="20"/>
	<rect x="279.5" y="60.5" stroke="#000000" stroke-miterlimit="10" width="20" height="20"/>
	<rect x="299.5" y="40.5" stroke="#000000" stroke-miterlimit="10" width="20" height="20"/>
	<rect x="319.5" y="60.5" stroke="#000000" stroke-miterlimit="10" width="20" height="20"/>
	<rect x="339.5" y="40.5" stroke="#000000" stroke-miterlimit="10" width="20" height="20"/>
	<rect x="359.5" y="60.5" stroke="#000000" stroke-miterlimit="10" width="20" height="20"/>
	<rect x="379.5" y="40.5" stroke="#000000" stroke-miterlimit="10" width="20" height="20"/>
	<rect x="399.5" y="60.5" stroke="#000000" stroke-miterlimit="10" width="20" height="20"/>
	<rect x="419.5" y="40.5" stroke="#000000" stroke-miterlimit="10" width="20" height="20"/>
	<rect x="439.5" y="60.5" stroke="#000000" stroke-miterlimit="10" width="20" height="20"/>
	<rect x="459.5" y="40.5" stroke="#000000" stroke-miterlimit="10" width="20" height="20"/>
	<rect x="480.5" y="60.5" stroke="#000000" stroke-miterlimit="10" width="20" height="20"/>
	<rect x="500.5" y="40.5" stroke="#000000" stroke-miterlimit="10" width="20" height="20"/>
	<rect x="520.5" y="60.5" stroke="#000000" stroke-miterlimit="10" width="20" height="20"/>
	<rect x="540.5" y="40.5" stroke="#000000" stroke-miterlimit="10" width="20" height="20"/>
	<rect x="560.5" y="60.5" stroke="#000000" stroke-miterlimit="10" width="20" height="20"/>
	<rect x="580.5" y="40.5" stroke="#000000" stroke-miterlimit="10" width="20" height="20"/>
	<rect x="600.5" y="60.5" stroke="#000000" stroke-miterlimit="10" width="20" height="20"/>
	<rect x="620.5" y="40.5" stroke="#000000" stroke-miterlimit="10" width="20" height="20"/>
	<rect x="640.5" y="60.5" stroke="#000000" stroke-miterlimit="10" width="20" height="20"/>
	<rect x="660.5" y="40.5" stroke="#000000" stroke-miterlimit="10" width="20" height="20"/>
	<rect x="680.5" y="60.5" stroke="#000000" stroke-miterlimit="10" width="20" height="20"/>
	<rect x="701.5" y="40.5" stroke="#000000" stroke-miterlimit="10" width="20" height="20"/>
	<rect x="721.5" y="60.5" stroke="#000000" stroke-miterlimit="10" width="20" height="20"/>
	<rect x="741.5" y="40.5" stroke="#000000" stroke-miterlimit="10" width="20" height="20"/>
	<rect x="761.5" y="60.5" stroke="#000000" stroke-miterlimit="10" width="20" height="20"/>
	<rect x="781.5" y="40.5" stroke="#000000" stroke-miterlimit="10" width="20" height="20"/>
	<rect x="801.5" y="60.5" stroke="#000000" stroke-miterlimit="10" width="20" height="20"/>
	<rect x="821.5" y="40.5" stroke="#000000" stroke-miterlimit="10" width="20" height="20"/>
	<rect x="841.5" y="60.5" stroke="#000000" stroke-miterlimit="10" width="20" height="20"/>
	<rect x="861.5" y="40.5" stroke="#000000" stroke-miterlimit="10" width="20" height="20"/>
	<rect x="881.5" y="60.5" stroke="#000000" stroke-miterlimit="10" width="20" height="20"/>
	<rect x="901.5" y="40.5" stroke="#000000" stroke-miterlimit="10" width="20" height="20"/>
	<rect x="921.5" y="60.5" stroke="#000000" stroke-miterlimit="10" width="20" height="20"/>
	<rect x="940.5" y="40.5" stroke="#000000" stroke-miterlimit="10" width="20" height="20"/>
	<rect x="920.5" y="20.5" stroke="#000000" stroke-miterlimit="10" width="20" height="20"/>
	<rect x="881.5" y="20.5" stroke="#000000" stroke-miterlimit="10" width="20" height="20"/>
	<rect x="841.5" y="20.5" stroke="#000000" stroke-miterlimit="10" width="20" height="20"/>
	<rect x="801.5" y="20.5" stroke="#000000" stroke-miterlimit="10" width="20" height="20"/>
	<rect x="761.5" y="20.5" stroke="#000000" stroke-miterlimit="10" width="20" height="20"/>
	<rect x="721.5" y="20.5" stroke="#000000" stroke-miterlimit="10" width="20" height="20"/>
	<rect x="680.5" y="20.5" stroke="#000000" stroke-miterlimit="10" width="20" height="20"/>
	<rect x="640.5" y="20.5" stroke="#000000" stroke-miterlimit="10" width="20" height="20"/>
	<rect x="600.5" y="20.5" stroke="#000000" stroke-miterlimit="10" width="20" height="20"/>
	<rect x="560.5" y="20.5" stroke="#000000" stroke-miterlimit="10" width="20" height="20"/>
	<rect x="520.5" y="20.5" stroke="#000000" stroke-miterlimit="10" width="20" height="20"/>
	<rect x="479.5" y="20.5" stroke="#000000" stroke-miterlimit="10" width="20" height="20"/>
	<rect x="439.5" y="20.5" stroke="#000000" stroke-miterlimit="10" width="20" height="20"/>
	<rect x="399.5" y="20.5" stroke="#000000" stroke-miterlimit="10" width="20" height="20"/>
	<rect x="359.5" y="20.5" stroke="#000000" stroke-miterlimit="10" width="20" height="20"/>
	<rect x="319.5" y="20.5" stroke="#000000" stroke-miterlimit="10" width="20" height="20"/>
	<rect x="279.5" y="20.5" stroke="#000000" stroke-miterlimit="10" width="20" height="20"/>
	<rect x="239.5" y="20.5" stroke="#000000" stroke-miterlimit="10" width="20" height="20"/>
	<rect x="199.5" y="20.5" stroke="#000000" stroke-miterlimit="10" width="20" height="20"/>
	<rect x="159.5" y="20.5" stroke="#000000" stroke-miterlimit="10" width="20" height="20"/>
	<rect x="119.5" y="20.5" stroke="#000000" stroke-miterlimit="10" width="20" height="20"/>
	<rect x="79.5" y="20.5" stroke="#000000" stroke-miterlimit="10" width="20" height="20"/>
	<rect x="39.5" y="20.5" stroke="#000000" stroke-miterlimit="10" width="20" height="20"/>
	<rect x="-0.5" y="20.5" stroke="#000000" stroke-miterlimit="10" width="20" height="20"/>
	<rect x="19.5" y="0.5" stroke="#000000" stroke-miterlimit="10" width="20" height="20"/>
	<rect x="59.5" y="0.5" stroke="#000000" stroke-miterlimit="10" width="20" height="20"/>
	<rect x="99.5" y="0.5" stroke="#000000" stroke-miterlimit="10" width="20" height="20"/>
	<rect x="139.5" y="0.5" stroke="#000000" stroke-miterlimit="10" width="20" height="20"/>
	<rect x="179.5" y="0.5" stroke="#000000" stroke-miterlimit="10" width="20" height="20"/>
	<rect x="219.5" y="0.5" stroke="#000000" stroke-miterlimit="10" width="20" height="20"/>
	<rect x="259.5" y="0.5" stroke="#000000" stroke-miterlimit="10" width="20" height="20"/>
	<rect x="299.5" y="0.5" stroke="#000000" stroke-miterlimit="10" width="20" height="20"/>
	<rect x="339.5" y="0.5" stroke="#000000" stroke-miterlimit="10" width="20" height="20"/>
	<rect x="379.5" y="0.5" stroke="#000000" stroke-miterlimit="10" width="20" height="20"/>
	<rect x="419.5" y="0.5" stroke="#000000" stroke-miterlimit="10" width="20" height="20"/>
	<rect x="459.5" y="0.5" stroke="#000000" stroke-miterlimit="10" width="20" height="20"/>
	<rect x="500.5" y="0.5" stroke="#000000" stroke-miterlimit="10" width="20" height="20"/>
	<rect x="540.5" y="0.5" stroke="#000000" stroke-miterlimit="10" width="20" height="20"/>
	<rect x="580.5" y="0.5" stroke="#000000" stroke-miterlimit="10" width="20" height="20"/>
	<rect x="620.5" y="0.5" stroke="#000000" stroke-miterlimit="10" width="20" height="20"/>
	<rect x="660.5" y="0.5" stroke="#000000" stroke-miterlimit="10" width="20" height="20"/>
	<rect x="701.5" y="0.5" stroke="#000000" stroke-miterlimit="10" width="20" height="20"/>
	<rect x="741.5" y="0.5" stroke="#000000" stroke-miterlimit="10" width="20" height="20"/>
	<rect x="781.5" y="0.5" stroke="#000000" stroke-miterlimit="10" width="20" height="20"/>
	<rect x="821.5" y="0.5" stroke="#000000" stroke-miterlimit="10" width="20" height="20"/>
	<rect x="861.5" y="0.5" stroke="#000000" stroke-miterlimit="10" width="20" height="20"/>
	<rect x="901.5" y="0.5" stroke="#000000" stroke-miterlimit="10" width="20" height="20"/>
	<rect x="940.5" y="0.5" stroke="#000000" stroke-miterlimit="10" width="20" height="20"/>
</g>
</svg>
